<svg xmlns="http://www.w3.org/2000/svg" width="1000" height="990.053" viewBox="0 0 1000 990.053"><path fill="#2a58a7" d="M629.466 568.763c1.127.038 2.09-.528 2.145-1.31.038-.8-.873-1.454-2.018-1.527-1.128-.072-2.073.528-2.128 1.291-.037.8.873 1.473 2 1.546M423.926 760.932a9.765 9.765 0 0 1-4.127 1.927l-1.928-7.818c-.127-.491-.072-.819.128-1.11.2-.236.709-.527 1.527-.727 1.527-.382 2.727-.073 3.582.982a6.71 6.71 0 0 1 1.2 2.655c.491 1.982.364 3.291-.382 4.091m10.947 8.346a1.582 1.582 0 0 1-.673-.345l-7.855-7.237c.909-.419 1.709-1.11 2.4-2.055a5.128 5.128 0 0 0 .673-4.382c-.546-2.255-2.164-3.491-4.8-3.728a16.183 16.183 0 0 0-5.092.6l-9.8 2.51.18.763a4.928 4.928 0 0 1 2.11-.019c.546.255.946.982 1.255 2.164l3.382 13.583c.291 1.128.291 1.891-.019 2.328-.291.436-.927.836-1.946 1.127l.2.8 10.22-2.655-.2-.763c-1.073.236-1.837.218-2.273-.055-.437-.29-.819-1-1.073-2.073l-1.51-6.019.873-.236 8.674 8 6.219-1.582-.2-.781c-.291.054-.546.054-.746.054M465.316 743.866l-.11-.782-6.763 1.2.127.782c1.2-.09 2.037 0 2.528.382.472.31.818 1.073 1 2.2l1.654 9.474a9.637 9.637 0 0 1 0 4.237c-.527 1.927-1.963 3.11-4.327 3.51-1.928.345-3.346-.256-4.292-1.71a9.055 9.055 0 0 1-1.182-3.564l-1.836-10.455c-.2-1.2-.127-1.982.2-2.419.363-.382 1.11-.69 2.273-.964l-.128-.763-10.419 1.8.146.818c1.109-.072 1.836.038 2.182.255.363.255.636.945.854 2.146l1.8 10.437a8.855 8.855 0 0 0 1.8 4.2c1.674 1.928 4.292 2.582 7.838 1.928 2.71-.473 4.582-1.528 5.6-3.219a9.219 9.219 0 0 0 .837-6.455l-1.728-9.964c-.181-1.019-.127-1.673.128-1.982.273-.364.89-.71 1.818-1.091M478.272 751.715l-2.4-.964c-2-.818-3.31-1.437-3.91-1.91-.6-.454-.946-1.163-1.036-2.145a2.91 2.91 0 0 1 .727-2.2 3.455 3.455 0 0 1 2.382-1.091 4.91 4.91 0 0 1 3.891 1.4 9.855 9.855 0 0 1 2.51 3.928l.872-.073-.582-6.855-.927.09a2.764 2.764 0 0 1-.255.8c-.127.183-.345.31-.69.328a10.62 10.62 0 0 1-1.855-.345 9.637 9.637 0 0 0-3.31-.255c-2.236.218-3.836 1-4.782 2.473a6.582 6.582 0 0 0-1.236 4.455 5.31 5.31 0 0 0 1.527 3.528 12.547 12.547 0 0 0 4.455 2.618l2.073.873a10.546 10.546 0 0 1 2.582 1.29 3.091 3.091 0 0 1 1.127 2.237 3.582 3.582 0 0 1-.69 2.382c-.528.8-1.492 1.237-2.874 1.364a5.255 5.255 0 0 1-3.964-1.273 9.783 9.783 0 0 1-2.873-4.927l-.89.072.672 7.82.91-.092a2.728 2.728 0 0 1 .217-.782c.11-.218.328-.327.655-.345h.327l.418.054.619.182a8.892 8.892 0 0 0 1.945.328 7.31 7.31 0 0 0 1.891.018c2.71-.236 4.6-1.127 5.728-2.636 1.091-1.491 1.6-3.055 1.437-4.637a6.091 6.091 0 0 0-2.055-4.182 8.91 8.91 0 0 0-2.637-1.528M378.085 781.743l-.345-7.855.236-.073 5.655 5.437zm15.147-.31a25.839 25.839 0 0 1-3.055-2.581l-13.037-12.365-.818.345.618 18.675a15.638 15.638 0 0 1-.091 2.964 2.437 2.437 0 0 1-1.255 1.727l.328.71 5.836-2.62-.309-.726a4.855 4.855 0 0 1-1.545.49c-.637.055-1.055-.109-1.219-.545a6.31 6.31 0 0 1-.363-1.782l-.146-2.637 6.383-2.873 1.509 1.437.818.836a3.746 3.746 0 0 1 .691.964c.218.491.2.873-.038 1.11a8.383 8.383 0 0 1-1.727 1.072l.309.71 9.255-4.128-.309-.728a1.8 1.8 0 0 1-1.836-.055M376.832 761.766c-.563-1.872-2.218-.89-2.218-.89s.018.527-.673 1.109c-.673.582-1.764.2-1.764.2-2.654.072-3.436 3.254-3.436 3.254s-.328.437-.255.819c.073.418.291.49.291.49s.29-2.018 2.073-1.163c1.818.836 3.964-.782 3.964-.782-.091.436 2.546-1.182 2.018-3.037M411.788 769.509a9.564 9.564 0 0 1-1.69 5.291 9.128 9.128 0 0 1-4.183 2.764c-1 .364-1.71.49-2.091.364-.4-.11-.727-.473-.927-1.091l-2.583-7.183c1.673-.636 2.964-.709 3.855-.272a7.164 7.164 0 0 1 2.564 3.128l.746-.255-3.546-10.001-.746.272c.273 1.782.237 3.092-.145 3.928-.382.873-1.418 1.546-3.091 2.146l-2.455-6.91c-.182-.564-.2-.964-.038-1.255.182-.29.71-.563 1.618-.89 2.346-.873 4.11-1.074 5.237-.71 1.146.382 2.237 1.455 3.31 3.237l.727-.237-2.11-6.019-16.964 6.128.254.764a4.273 4.273 0 0 1 1.891-.31c.673.092 1.164.6 1.473 1.456l5.11 14.419c.327.855.236 1.564-.2 2.055a4.11 4.11 0 0 1-1.655 1.018l.255.727 17.201-6.218-1-6.637zM395.06 756.938c1.728.982 4.02-.437 4.02-.437-.146.437 2.654-1 2.236-2.854-.382-1.91-2.128-1.091-2.128-1.091s-.038.563-.727 1.09c-.746.51-1.8.055-1.8.055-2.655-.163-3.692 2.91-3.692 2.91s-.381.418-.327.818c.055.4.255.564.255.564s.436-2.037 2.163-1.055M444.683 767.379c-.545-.182-.89-.71-1.072-1.6l-2.982-15.02c-.182-.91-.02-1.6.527-2.037a5.728 5.728 0 0 1 1.927-.745l-.163-.782-10.729 2.218.146.746a4.546 4.546 0 0 1 2-.019c.655.182 1.055.727 1.237 1.655l3 15.02c.163.945-.02 1.618-.564 2.054a5.873 5.873 0 0 1-1.836.71l.181.763 10.729-2.182-.146-.782a4.055 4.055 0 0 1-2.255 0M434.295 746.479c1.564 1.2 4.037.109 4.037.109-.182.436 2.764-.527 2.636-2.473-.127-1.928-1.964-1.382-1.964-1.382s-.109.545-.872.946c-.8.418-1.782-.219-1.782-.219-2.582-.49-4.073 2.383-4.073 2.383s-.419.345-.437.727c-.019.418.182.6.182.6s.71-1.891 2.273-.691M509.115 757.487a5.928 5.928 0 0 0-1.91-4.273 8.874 8.874 0 0 0-2.563-1.619l-2.364-1.09a22.002 22.002 0 0 1-3.837-2.037c-.582-.473-.891-1.2-.946-2.2a2.946 2.946 0 0 1 .819-2.164c.582-.637 1.363-.946 2.418-.982a4.782 4.782 0 0 1 3.837 1.545 9.455 9.455 0 0 1 2.346 4.037l.872-.055-.327-6.873-.927.055a3.928 3.928 0 0 1-.273.782c-.128.181-.364.272-.71.309a11.274 11.274 0 0 1-1.818-.437 9.71 9.71 0 0 0-3.327-.382c-2.237.11-3.837.873-4.873 2.237a6.855 6.855 0 0 0-1.4 4.437 5.582 5.582 0 0 0 1.381 3.618 14.201 14.201 0 0 0 4.346 2.782l2.055.946a9.82 9.82 0 0 1 2.546 1.4 3.073 3.073 0 0 1 1.018 2.273 3.6 3.6 0 0 1-.782 2.364c-.545.782-1.527 1.164-2.927 1.236a5.364 5.364 0 0 1-3.91-1.418 10.11 10.11 0 0 1-2.673-5.037l-.89.02.38 7.836.892-.072a2.31 2.31 0 0 1 .29-.764c.092-.182.31-.29.637-.31l.327.02.4.09.637.183a10 10 0 0 0 3.8.527c2.728-.146 4.655-.946 5.819-2.419a6.673 6.673 0 0 0 1.636-4.564M517.417 744.755c0-.455.145-.764.418-.891a2.546 2.546 0 0 1 1.328-.219c1.382.02 2.29.491 2.763 1.382a7.528 7.528 0 0 1 .691 3.51c-.054 2.11-.563 3.51-1.563 4.127-.619.419-1.891.6-3.746.6zm2.51 18.456c-1.055-.055-1.764-.273-2.165-.673-.364-.345-.563-1.11-.545-2.273l.073-5.982c1.872 0 3.273 0 4.236-.038a9.6 9.6 0 0 0 2.837-.673 5.4 5.4 0 0 0 3.582-5.091c.038-2.11-.636-3.582-2.036-4.492a11.928 11.928 0 0 0-6.074-1.382l-10.11-.127-.019.8c1.055.11 1.746.346 2.11.673.364.31.545 1.073.527 2.237l-.182 14.019c-.019 1.127-.218 1.836-.582 2.218-.364.364-1.054.564-2.109.637l-.019.8 10.456.127zM547.285 748.254a7.91 7.91 0 0 1 3.583-.182l-2.546 16.474c-.164 1.127-.491 1.891-.964 2.218-.454.31-1.29.382-2.51.165l-.126.836 10.982 1.71.128-.8c-1.237-.2-2.019-.51-2.346-.946-.327-.419-.418-1.237-.237-2.382l2.528-16.511a7.837 7.837 0 0 1 3.364 1.31c1.273.963 1.836 2.654 1.8 4.927l.873.164.945-6.328-18.565-2.873-1 6.291.89.128c.528-2.219 1.62-3.637 3.201-4.2M560.213 769.082l-.164.8 10.71 2.327.164-.782a4.419 4.419 0 0 1-2.073-.909c-.418-.4-.527-1.018-.346-1.873l3.219-15.001c.182-.928.618-1.491 1.29-1.637a6.31 6.31 0 0 1 2.037.091l.164-.8-10.71-2.327-.164.8a4.728 4.728 0 0 1 1.855.745c.51.455.673 1.11.473 2.019l-3.2 15.001c-.182.891-.619 1.437-1.31 1.637a3.837 3.837 0 0 1-1.945-.091M575.697 765.069a8.455 8.455 0 0 0-.418 4.546c.582 2.51 2.582 4.31 6 5.473 2.6.891 4.746.855 6.42-.127 1.69-.964 2.945-2.691 3.8-5.273l3.182-9.583c.327-.982.672-1.527 1.073-1.71.4-.163 1.09-.181 2.09-.054l.237-.763-6.473-2.2-.255.763c1.11.473 1.782.982 2.055 1.527.236.528.182 1.346-.164 2.419l-3.073 9.182a9.492 9.492 0 0 1-1.964 3.71c-1.382 1.436-3.182 1.745-5.473.964-1.836-.619-2.836-1.782-2.964-3.583a9.546 9.546 0 0 1 .655-3.69l3.327-10.056c.382-1.146.819-1.819 1.328-2 .473-.218 1.29-.146 2.455.218l.254-.728-10.019-3.418-.254.764c.981.472 1.6.89 1.782 1.272.2.419.127 1.182-.273 2.273zM600.184 761.588l-5.182 14.092c-.291.8-.673 1.31-1.164 1.546-.473.29-1.291.218-2.418-.182l-.291.728 6.927 2.582.273-.746c-1.218-.49-1.927-1.055-2.109-1.69-.218-.583-.127-1.346.237-2.347l4.927-13.437.11.109.963 19.765.819.31 13.583-14.747.218.091-5.328 14.492c-.327.91-.764 1.4-1.291 1.491a4.31 4.31 0 0 1-2.128-.272l-.254.745 9.71 3.637.272-.782c-.964-.382-1.582-.818-1.818-1.273-.237-.473-.146-1.273.255-2.364l4.818-13.146c.418-1.146.855-1.764 1.328-1.928.454-.163 1.218-.109 2.218.2l.291-.727-7.437-2.8-10.728 11.6-.255-.109-.71-15.874-7.4-2.8-.272.764a4.964 4.964 0 0 1 1.836 1.236c.29.418.29 1.037 0 1.837"/><path fill="#2a58a7" d="m528.48 757.859 3.564-6.983.218.038 2.291 7.564zm5.528-13.329-8.4 16.056a14.238 14.238 0 0 1-1.546 2.528 2.346 2.346 0 0 1-1.928.854l-.073.8 6.42.637.072-.8a6.946 6.946 0 0 1-1.6-.346c-.582-.236-.837-.636-.8-1.073.037-.364.218-.982.582-1.745l1.145-2.382 7.037.69.618 2.02.31 1.126a3.819 3.819 0 0 1 .127 1.164c-.055.51-.255.873-.582.982a7.819 7.819 0 0 1-2.037.055l-.09.782 10.182.982.09-.764a1.873 1.873 0 0 1-1.581-.946 21.602 21.602 0 0 1-1.418-3.8l-5.383-17.238h-.019l3.983-2.818s1.381-1.31-.437-1.855c-1.836-.564-4.6 2.055-4.6 2.055l-3.419-3.291 1.655 5.582zM446.149 799.02a10.437 10.437 0 0 1-.038 1.8 8.073 8.073 0 0 1-1.073 3.438 7.892 7.892 0 0 1-3.71 3 30.275 30.275 0 0 1-5.436 1.49l1.036 5.965 9.983-1.71 5.273 30.64 8.51-1.455-7.637-44.367zM552.833 813.617c-.546 3.146-1.891 5.146-4.037 6.073a5.51 5.51 0 0 1-3.419.473c-2.109-.345-3.582-1.291-4.382-2.782-.8-1.491-.982-3.546-.509-6.182.546-3.11 1.727-5.183 3.564-6.237a5.746 5.746 0 0 1 3.873-.6 5.673 5.673 0 0 1 4.255 3.018 9.619 9.619 0 0 1 .655 6.237m-4.055-16.602a13.201 13.201 0 0 0-11.001 2.655c-3.128 2.491-5.128 6.128-5.928 10.856-.8 4.6-.11 8.31 2.073 11.219a13.128 13.128 0 0 0 8.346 5.219 11.02 11.02 0 0 0 6-.473 9.128 9.128 0 0 0 2.819-1.891 29.694 29.694 0 0 1-2.455 7.528c-1.673 3.036-3.91 4.273-6.691 3.8a4.8 4.8 0 0 1-3.255-1.836 5.491 5.491 0 0 1-1.073-3.437l-8.255-1.437c-.273 3.819.673 6.928 2.873 9.328a14.056 14.056 0 0 0 8.11 4.4c6.71 1.183 11.873-1.472 15.583-7.818 1.945-3.382 3.364-7.764 4.291-13.11.964-5.546 1.055-10.11.273-13.747-1.364-6.4-5.292-10.128-11.71-11.256M515.605 809.357c-1.018 1-2.382 1.418-4.127 1.327a5.382 5.382 0 0 1-3.946-1.782 5.528 5.528 0 0 1-1.237-4.073 5.855 5.855 0 0 1 1.71-4.127 5.637 5.637 0 0 1 4.127-1.237c1.746.11 3.073.691 3.946 1.746a5.8 5.8 0 0 1 1.182 4.255 5.619 5.619 0 0 1-1.655 3.89m-.673 20.585a5.819 5.819 0 0 1-4.69 1.6 5.855 5.855 0 0 1-4.474-2.11c-1.037-1.272-1.473-3.054-1.346-5.31.146-2.272.782-3.981 1.982-5.127a6.037 6.037 0 0 1 4.673-1.545 6 6 0 0 1 4.437 2.09c1.055 1.237 1.51 3.055 1.364 5.347-.127 2.236-.764 3.89-1.946 5.055m5-16.184a8.8 8.8 0 0 0 4.292-4.182 13.438 13.438 0 0 0 1.237-4.71 11.365 11.365 0 0 0-3.073-8.564c-2.237-2.455-5.51-3.782-9.856-3.982-4.31-.273-7.728.673-10.237 2.837a11.274 11.274 0 0 0-4.055 8.182 13.601 13.601 0 0 0 .673 4.8 10.328 10.328 0 0 0 3.818 4.928 10.783 10.783 0 0 0-5.055 4.328 15.347 15.347 0 0 0-2 6.782 13.729 13.729 0 0 0 3.146 9.892c2.31 2.819 5.891 4.382 10.71 4.619 4.8.327 8.619-.8 11.437-3.328 2.855-2.49 4.364-5.655 4.6-9.419a14.765 14.765 0 0 0-1.2-6.982 11.874 11.874 0 0 0-4.436-5.2M480.385 815.66a6.237 6.237 0 0 1-3.255 1.11c-2.146.019-3.746-.637-4.819-1.946-1.054-1.309-1.6-3.327-1.636-6.018-.038-3.146.727-5.401 2.364-6.747a5.637 5.637 0 0 1 3.69-1.345 5.855 5.855 0 0 1 4.747 2.182 10 10 0 0 1 1.782 6.037c.038 3.164-.91 5.418-2.873 6.728m-4.182-22.293a13.183 13.183 0 0 0-10.31 4.618c-2.619 3.037-3.91 6.928-3.837 11.765.072 4.673 1.436 8.2 4.11 10.656a12.91 12.91 0 0 0 9.164 3.564c2.29-.038 4.236-.546 5.818-1.546.855-.546 1.655-1.364 2.419-2.364a29.075 29.075 0 0 1-1.055 7.837c-1.073 3.291-3.055 4.928-5.873 4.964a4.91 4.91 0 0 1-3.528-1.2 5.455 5.455 0 0 1-1.69-3.182l-8.383.11a12.056 12.056 0 0 0 4.564 8.655 14.038 14.038 0 0 0 8.764 2.818c6.8-.091 11.42-3.619 13.874-10.565 1.291-3.673 1.91-8.219 1.837-13.674-.091-5.6-.837-10.11-2.291-13.528-2.528-6.055-7.056-9.019-13.583-8.928"/><path fill="#2a58a7" d="m741.255 770.379-20.529.072c4.619-1.436-1.382-6.728-1.382-6.728-8.855-10.364-14.183-18.183-17.438-23.965a423.693 423.692 0 0 0 34.167-55.005h78.225a366.142 366.142 0 0 1-73.043 85.625M315 809.236c1.49-2.8 6.928-13.528 8.2-22.747 0 0 3.273-4.128 9.51-2.073 31.476 22.13 45.023 53.841 45.023 53.841l22.22 6.746c5.691 1.019 21.71-10.364 21.71-10.364 14.457-4.092 10.856-35.658 10.856-35.658 56.35-21.202 135.922-1.018 135.922-1.018-1.037 5.691.527 21.693.527 21.693 10.528 22.547 26.82 25.511 38.603 24.038a368.47 368.47 0 0 1-105.19 15.638 367.651 367.651 0 0 1-187.381-50.096m-127.54-124.483h76.971c7.838 14.983 16.947 29.348 27.585 42.53-3.146 5.729-9.201 14.402-20.784 26.549 0 0-9.8 7.728 3.855 7.127 0 0 8.619 1.782 16.056-2.982 0 0 9.2 1.8 12.183.637 0 0 3.855.29-2.691 5.91l-4.946 6.164h-34.803a364.087 364.087 0 0 1-73.425-85.935m68.915-460.514h65.279a422.129 422.129 0 0 0-57.06 85.28h-79.116a366.542 366.542 0 0 1 70.897-85.28M828.59 396.363v-43.458h-44.84v43.458h-4.819a53.768 53.768 0 0 0-15.874-29.675 428.73 428.73 0 0 0-20.493-49.932h78.008a360.342 360.341 0 0 1 33.457 79.607zm0 97.136v-89.917h27.44c7.527 28.748 11.618 58.878 11.8 89.917zm28.112 91.172-83.862.345c5.146-22.092 8.8-45.804 10.437-71.133l-.709.145-5.328 1-7.491-14.255h14.001v21.129h44.84v-21.13h39.186a360.414 360.414 0 0 1-11.074 83.899m-85.735 8.055h83.571a358.814 358.814 0 0 1-35.912 84.808h-78.88a420.874 420.874 0 0 0 31.221-84.808m-49.495 84.808c.072-10.747-3.092-18.51-3.092-18.51 6.02-1.183 2.655-5.256 2.655-5.256l-9.746-23.402c3.055-1.637-8.765-25.439-8.765-25.439 6.528.328-2.09-10.782-2.09-10.782l-.655-1.419h65.533a429.166 429.166 0 0 1-31.257 84.808zm-24.493 49.459c1.563-22.402-10.292-31.294-10.292-31.294-.873-6.019 8.146-2.31 8.146-2.31 6.237 5.656 7.437 5.801 7.437 5.801 1.71-4.11 2.546-2.855 2.546-2.855 2.436 9.765 7.164 10.201 7.164 10.201 5.4-7.255 7.964-14.855 8.964-21.783h9.438a398.309 398.308 0 0 1-30.985 50.095c-2.473-5.437-2.418-7.855-2.418-7.855m10.637 35.967c-.473-.564-13.892-7.492-13.892-7.492-1.51-.945-8.801-.091-8.801-.091-2.982 1.036-3.11 0-3.11 0-1.163-1.091-2.89-7.237-2.89-7.237-3.255-6.91 2.145-4.546 2.145-4.546 7.528 1.291 12.128 8.764 12.128 8.764.982 3.855 3.51 2.255 3.51 2.255.909-4.437-3.182-8.273-3.182-8.273-3.364-5.182-20.166-10.22-20.166-10.22-2.018-4.436 1.528-3.054 1.528-3.054l4.946 1.49c2.272 2.547 9.71 2.42 9.71 2.42 4-.819 5.11.8 5.11.8-.219 1.163 2.181 4.782 2.181 4.782.582 1.727 11.965 18.074 11.965 18.074 5.128 7.31-1.182 2.327-1.182 2.327m-17.602-2.673s5.383-.745 5.928 1.873c0 0-6.764.855-8.237-.6 0 0-1.855-.963 2.31-1.273m-2.746 10.256c-2.964-3.691-.2-3.782-.2-3.782 2.909 1.364 12.183.072 12.183.072 3.054 2.182 6.4 3.2 9.2 3.637zm5.655 7.164 39.367.11a365.815 365.815 0 0 1-36.385 25.91l.4-1.927 1.69-16.91c-.29-.491-2.836-4.037-5.072-7.183m-57.787 39.367c5.218-6.073 8.419-10.964 10.328-14.91 3.51-3.055 7.71-6.928 12.383-11.456a8.31 8.31 0 0 1 7.855 2.873c.818 9.529 5.928 20.911 7.11 23.403a368.815 368.815 0 0 1-50.368 21.91zm-306.683-63.569s-.509 2.4.346.2c.873-2.273 2.4-1.218 2.4-1.218l1.382 3.946c4.655 5.164 4.655-1.037 4.655-1.037s-5-3.418-1.546-9.31c3.437-5.855 6.201-4.31 6.201-4.31s-7.237 6.02-1.546 9.493c5.692 3.436 5.346-3.292 5.346-3.292-.69-4.29 8.601-7.4 8.601-7.4 2.6.182 7.746-.873 7.746-.873l11.892-.855v3.292a81.044 81.044 0 0 0-19.929 14.51l-14.183 2.364c-2.218 3.091-6.019.527-6.019.527-2.418.673-10-1.2-10-1.2zm-52.677-68.751c1.255 4.091 3.127 8.219 5.855 12.383 0 0 4.746-.218 7.71-9.82 0 0 .89-1.2 2.382 2.983 0 0 1.2-.073 7.728-5.437 0 0 9.2-3.182 8.019 2.727 0 0-12.31 8.274-11.947 30.749 0 0-.018.89-.69 2.836-3.037-3.982-12.02-16.329-22.603-36.421zm-38.167-92.027h56.841c-.654 1.891-.418 3.419 2.019 3.419 0 0-13.056 23.147-10.092 24.947l-10.983 22.857s-3.546 3.855 2.382 5.328c0 0-5.873 12.583-3.618 28.257h-5.655a411.637 411.637 0 0 1-30.894-84.808m-36.785-91.953v20.001h18.11c1.6 15.965 4.674 38.877 10.474 64.752h-84.098a360.633 360.632 0 0 1-11.292-84.753Zm0-97.19v89.916H134c.163-31.02 4.254-61.169 11.8-89.917zm40.33-38.24v-13.547h-40.33v44.567h-53.041a359.85 359.85 0 0 1 33.457-79.607h79.771a433.039 433.039 0 0 0-19.856 48.586m103.682-48.586a523.393 523.392 0 0 0-11.892 35.04h-23.857l-38.167 44.567h-29.766v-12.42c4.145-14.637 12.092-38.784 25.947-67.187zM328.2 224.24h62.696a523.847 523.847 0 0 0-43.24 85.28h-76.934a420.456 420.456 0 0 1 57.478-85.28m-.182-7.237h-63.242a366.979 366.978 0 0 1 155.614-76.553c-18.584 10.91-55.187 35.313-92.372 76.553m67.515 0h-60.878a386.108 386.107 0 0 1 102.882-79.88l-.054-.037c8.964-1.564 18.001-2.764 27.166-3.655-11.274 10.31-39.695 38.404-69.116 83.571m97.155-70.06-44.859 69.224-.345.837H402.77a442.313 442.312 0 0 1 72.225-84.426c7.2-.527 14.438-.8 21.748-.891v11.456c-2.528 1.672-4.055 3.8-4.055 3.8M482.323 217l.327-.836 14.093-40.167v41.004zm-23.384 92.518 17.874-78.825 2.6-6.455h17.33v85.28zm-38.458 86.844 10.128-41.022h17.93l8.764-38.585h39.44v79.607zm58.387 13.001V493.5H409.19c.164-18.656.71-42.058 1.073-55.714l8.437-34.203h78.044v5.782zm-59.605 176.162c-.055-.182-.128-.382-.128-.51 0 0 4.164-1.054-1.782-14.728 0 0 14.547-7.746 16.93-11.274 0 0 10.71-10.11 12.182-12.492 0 0 21.075-12.165 22.857-12.456 0 0 6.237-3.89 4.455-9.219l-2.073-1.763s.29-2.364 1.473-3.582c0 0 4.764-9.201-8.31-3.874l-5.346 5.383s-9.801 0-14.256 10.092l-26.42 15.42s1.763-12.166-3.874-16.02c0 0 1.182-9.238-5.71-15.966a506.41 506.409 0 0 1-.108-13.764h69.715v20.765h17.874v63.988zm25.111 92.008a13.674 13.674 0 0 0-2.673-7.455s1.473-9.183-3.855-12.474c0 0 0-17.547-12.474-13.074 0 0-1.782.618-6.837-4.764 0 0-5.946-.291-8.891 2.11 0 0-10.71-7.729.582-19.62 0 0 16.347 0 24.947-13.366 0 0 15.147.619 11.565-14.237l-.527-1.928h50.532v84.808zm-7.291 18.674c1.582-2.964 2.854-6.71 3.654-11.455h56.006v34.966a394.745 394.744 0 0 0-52.096 4.237zm-83.644-19.038c-.51-1.745-2.928-1.873-2.928-1.873-6.728-2.6-19.965-12.928-19.965-12.928-3.473-2.091 10.146-1.891 10.146-1.891.51.345 5.673 2.564 5.673 2.564 9.492 1.563 20.857 12.928 20.857 12.928.873 2.218 0 10.11 0 10.11l-4.128-1.836c-2.6.164-9.655-7.074-9.655-7.074m-21.893 2.946c-9.128-6.11-9.801-4.819-9.801-4.819-1.564-.527-6.037 1.4-6.037 1.4-5.51 2.564-2.582-2.09-2.582-2.09 1.364-4.51 6.2-8.801 6.2-8.801 8.438-1.546 16.02 6.891 16.02 6.891.873.345 15.165 7.746 15.165 7.746.51 1.528 5 5.692 5 5.692.673 1.89 2.255 3.273 2.255 3.273 1.182 1.745.655 2.582.655 2.582h-4.128c-.509-.673-5.855-3.437-5.855-3.437l-4.31-.691c-.854-.182-12.582-7.746-12.582-7.746m-14.456 30.657c-5.692 2.237-1.564-2.4-1.564-2.4 1.4-2.11 7.764-7.092 7.764-7.092 1.71-1.363 6.547-2.4 6.547-2.4 3.618-1.018 2.4 1.219 2.4 1.219-.855-.364-1.2 2.054-1.2 2.054-4.819 6.219-13.947 8.62-13.947 8.62m-3.273 7.727s8.092-5.491 11.874-5.655c0 0 4.327-1.727 1.89 2.91 0 0-.836 5.527-3.436 3.8 0 0-10.328.89-11.02 1.054 0 0-3.454 1.182.692-2.109m-6.564-73.17v-.019l2.509-5.291s.782-.273 1.255.545c1.254.564 1.109.782.29 2.855a3.891 3.891 0 0 1-2.2 2.11s-2.236 1.6-2.09.472h-.092zm-9.147-5.073s8.638-17.51 10.092-17.838c0 0 4.637-1.273 5.146.564 0 0-4.637 9.037-6.182 10.564 0 0-10.328 14.474-9.056 6.71m0-18.33s-1.545 1.801 1.8 1.801c0 0-3.345 10.856-5.4 12.147 0 0-12.928 9.055-10.874 4.91 0 0 6.22-17.475 8.547-18.366.945-.364 4.127-2.564 5.927-.491m3.892-26.093s4.636-2.346 6.2-2.073c0 0-1.818 12.946-7.255 18.601 0 0-8.764 7.237-8 3.073 0 0 8.855-19.51 9.055-19.601m18.147-192.254a546.595 546.594 0 0 0-8.546 64.824l-24.585-32.457 24.93-32.367zm1.473-7.219h-4.092l5.692-7.419-1.6 7.42m55.677 7.218L356.093 493.5H330.6l-12.874-16.983c.619-12.092 2.655-38.476 9.638-72.934zm25.13 89.917h-5.928l6.255-25.33zm-2.873 15.602-9.51 10.6 4.655-18.928h7.655l-.127 9.273-2.673-.945m1.564 38.403-3.855-9.783c.545-1.963 9.964-12.219 11.146-13.51.146.09.255.164.364.2 5.873 8.128-7.656 23.093-7.656 23.093m10.947 2.327s-2.673 6.837-9.8 7.728c0 0-3.565-2.673.89-7.4 0 0 9.492-6.855 9.492-11.62 0 0 4.164 0-.582 11.292m-8.528 69.498s-2.073 4.91-3.6 3.818c0 0-1.837-19.893 3.345-20.874 0 0 2.582 9.31.255 17.056m.127 31.73s-5.71 0-3.382-3.11l7.256.8zm4.274 6.455-2.837.273c-2.073-4.655 5.691-4.382 5.691-4.382zm-1.728 46.186c.273.182.473.418.4.836 0 0-3.691-.945-2.855-1.036l.564-.073c-.273-.164-.364-.418-.091-.818 0 0 2.327-.546 2.837 1.018l-.855.073m.745 5.273s-6.982 5.182-9.837-2.018c0 0 8.528 2.254 9.837 2.018m-10.328-8.983s4.019-2.564 4.273-.982c0 0-5.964 4.255-4.273.982m-9.11-16.328s-4.146-6.474-2.582-6.965c0 0 4.91 6.183 9.82 8.492 0 0 8.527 3.128 8.018 7.764 0 0-2.836 5.42-15.256-9.291m-5.218 17.892s2.854 1.982 3.127 3.891c0 0-6.982-.236-7.764-3.636zm-4.946-12.728s2.836 4.51 1.29 8c0 0-1.545-2.854-1.29-8m-3.528-20.748c-.782-3.382 4.637-6.218 4.637-6.218l-.254 3.655s-3.6 5.91-4.383 2.563m-2.654 16.511c-2.31-3.891 3.927-11.292 3.927-11.292l-.345 6.473s-1.273 8.71-3.582 4.819m-2.255 4.255 3.346 1.782s.781 3.618.527 5.455c0 0-5.164-5.164-3.873-7.237m-20.475-48.004s2.419 1.2 1.546 2.236l-5.51.182-.163-1.927s2.582-2.91 4.127-.491m46.495-107.137-8.91-1.782 13.656-16.929c3.982 10.437-4.746 18.71-4.746 18.71m1.619 21.166s-2.582-4.618-4.892-2.836c0 0-1.29 4.91-1.818 1.29 0 0 1.546-6.982-3.873-5.709 0 0 1.546 3.891-.273 2.637 0 0-1.8-2.328-2.055-6.2 0 0 0-8.038-3.09-1.583 0 0 1.017 6.983-1.82 4.128 0 0-.527-10.328-4.654-3.364 0 0-2.837 6.219-3.619 3.873l-.782-2.564c-.309.346 3.364-12.183 20.693-5.673 0 0 5.419 2.836 6.964 9.055 0 0 2.073 8.256-.781 6.946m-5.128 53.096c-8.801 8.946-20.948 9.146-20.948 9.146-5.927-3.327-6.182-7.237-6.182-7.237 0-2.31 14.456-6.946 14.456-6.946 7.237-2.346 18.874-18.365 18.874-18.365 9.001 13.001-6.2 23.402-6.2 23.402m2.036 16.692c-4.127 0-13.965 8.274-13.965 8.274-5.418-4.128-.236-12.947-.236-12.947 7.746.546 15.493-8.364 15.493-8.364zm3.092 19.984c-2.055.272-3.619-3.11-3.619-3.11-7.491-9.31 7-12.128 7-12.128l.51 12.401zm-44.914-26.893s-16.528 4.964-17.31 4.673l-9.82-.764s16.53-10.6 27.13-3.91m-4.51-7.11s14.202 2.328 15.766 5.656c0 0 .2 2.564-5.164-1.036 0 0-12.42-5.746-18.093-3.51 0 0-14.637 3.928-11.637 1.437 0 0 5.164-7.456 19.129-2.546m11.292-9.874s14.474-.509 21.438-6.473c0 0 10.62-6.382 10.62-9.801l3.854-3.891s1.546 1.127-2.31 4.673c0 0-10.6 11.62-14.746 13.183 0 0-17.038 6.455-18.62 9.292 0 0-12.128-2.837-15.747-2.837 0 0 1.291-5.437 15.51-4.146m5.401-42.622c7.437 14.892 2.746 14.602 2.746 14.602-3.128.618-1.946-7.001-1.946-7.001-6.673-4.564-.8-7.6-.8-7.6m-11.619 28.365s4.146-8.51 13.183-9.037c0 0 3.364-1.527 4.91-3.11 0 0 2.582-.254 3.873-.526 0 0 1.29-3.619-1.019-3.092 0 0-1.036-2.836.764-3.09 0 0-.69-3.128-3.891-1.037 0 0-3.855-8.528-1.8-8.765 0 0 10.346-.782 11.637-.782 0 0 3.873-4.636-6.2-3.127l-4.146-2.564s3.873-1.582 5.946-1.055c0 0 4.4-2.854 10.328 6.2 0 0 5.182 2.092-2.055 8.802 0 0 .764 7.491-4.637 4.891 0 0-3.363 2.855-.781 3.891 0 0 4.636 2.055 7.746-3.89 0 0 1.545 2.854 4.91 3.618 0 0-8.529 12.928-11.384 13.692 0 0-1.018 5-6.2 5.018 0 0-3.091 3.219-4.637.02 0 0-3.091-2.692-4.419 2.472 0 0-13.673 1.819-14.965 1.528 0 0-1.29-3.91.528-3.928 0 0 3.346-.455 2.31-6.128m25.529 64.806-13.165-5.691c-6.728-1.528-12.947-12.91-12.947-12.91-2.31-8.529 7.51-10.329 7.51-10.329 3.091.51 6.71-2.855 6.71-2.855 3.11.491-1.019 3.11-1.019 3.11-3.364-.782-2.09 1.782-2.09 1.782 1.563.527 16.037 18.91 16.037 18.91 3.364 5.42 8.274 6.965 8.274 6.965 5.418.509 11.092 4.382 11.092 4.382l-.764 2.31-2.582.526-.528 2.092-2.563 1.018-.51 3.11c-2.09-4.637-13.455-12.42-13.455-12.42m3.69 16.329c2.601 7.237-.781 8.782-.781 8.782-2.055-4.673.782-8.782.782-8.782m1.546 19.51c-4.128 0-3.6-4.382-3.6-4.382-1.765-4 7.745 4.383 3.6 4.383m-46.896-186.381h18.33l-4.365 18.438zm13.529 20.347-.018.072 38.803.328-7.273 8.11-3.546 3.545s-8.037 2.073-11.601 7.728c0 0-5.637 1.182-5.928 9.22 0 0 2.055 6.818-3.273 10.073 0 0-.89 3.255 2.964 5.655 0 0 2.691 2.655.891 4.746 0 0 1.8 2.982.6 3.564 0 0-5.346 3.873-8.619 3.273 0 0-8.6 4.146-7.419-11.892 0 0 4.146-28.494-22.42-14.529 0 0-.564.364-1.691 1.419l.855-1.237s-1.8-12.801-3.073-30.075zm-6.51 61.278s-2.073 0-3.891 4.11c0 0-6.437 9.582-9.037 7.764 0 0 2.054-9.074 2.836-10.092 0 0 5.946-9.019 3.619-10.328 0 0-3.619-2.073-5.946 3.11 0 0-4.31 11.218-7.746 12.418 0 0-5.419 5.837-7.492 3.583 0 0-.254-3.855 7.237-13.438 0 0 8.51-9.546 4.637-11.856 0 0-2.837-3.473-8.783 7.728 0 0-7.51 11.238-9.819 11.238 0 0-11.619 9.455-6.455 1.69 0 0 17.056-28.674 19.91-29.184 0 0 14.457-17.074 17.548 1.764 0 0-3.364 21.22 8.8 21.22 0 0 3.62 2.691-1.818 8.437 0 0 .255 5.528.255 6.565 0 0-5.673 2.054-5.928 3.345 0 0-3.637 3.873-4.928 2.073 0 0-.763-6.982-4.382 0 0 0-3.873 8.256-6.728 8.001 0 0-3.345 4.891-4.655 5.691 0 0-5.146 4.146.782-6.964 0 0 6.474-13.183-1.545-8.8 0 0-4.383 10.855-8.528 13.964 0 0-6.455 6.2-6.728 2.819 0 0 8.8-18.33 10.873-19.347 0 0 4.637.509 7.492-2.073 0 0 .764 4.636 3.619 3.6 0 0 4.89 2.564 12.655-5.946 0 0 10.074-9.82 4.146-11.092m-33.24 69.806s-.181-1.545.528-1.545c0 0 1.018.673 5.673-2.946 0 0 5-1.71 1.2 6.728 0 0-4.636 11.2-6.364 12.91 0 0-1.89 3.455-1.727-3.418l1.382-7.947s1.2-2.436-.691-3.782m28.075-15.656-11.528 4.619s-5.183 1.564-8.456.164c0 0-5.855-4.473.182-11.51 0 0 4.819-4.655 14.292-2.964 0 0-.872 1.746-4.473 1.564 0 0-7.764-.328-10.346 7.237 0 0-.164 4.636 2.055 4.636 0 0 2.254 1.564 2.6-2.236 0 0 .363-5.673 10.164-6.019 0 0 5 .691 11.365-4.473 0 0 2.255-.873 1.382 2.4l.345 2.582s1.2 1.746-.872 2.073zm-2.4 18.584s-9.983.509-10.874 1.218c0 0-3.073 1.691-1.71-1.218 0 0 1.546-4.673 1.71-6.546 0 0 8.964-4.31 11.565-6.728 0 0 2.91-1.564 1.89 4.982l-.69 6.237s.345 1.691-1.891 2.055m32.566 6.528c2.055 8.637-2.764 4.146-2.764 4.146l-16.201-9.31c-5.51-1.019-1.891-4.637-1.891-4.637 3.273-4.146 13.256-1.564 13.256-1.564 4.836 1.2 10.346 5.346 10.346 5.346 3.437 2.946-.345 2.764-.345 2.764-4.31.182-2.4 3.255-2.4 3.255m21.183 40.949c-.764 1.564-4.146-3.128-3.11-3.491 0 0 3.892 1.927 3.11 3.49m-4.491-7.927-2.328-3.091s1.837-1.855 8.001 3.618c6.182 5.455-3.346 2.6-5.673-.527m30.384-17.984s1.291 11.383 1.037 12.383c0 0-8.528 2.6-8.274 3.092 0 0-2.582-8.51-13.183-11.62 0 0-6.455-6.2-2.327-9.546 0 0 9.819-.255 9.31-2.327 0 0 1.8-8.001 3.09-6.474 0 0 3.62-3.582 10.347 14.492m4.419-27.475c-9.82-1.29-5.419-4.891-5.419-4.891 10.583 4.128 5.419 4.891 5.419 4.891m-5.964 10.401c-1.291-1.29 3.364-4.127 3.364-4.127l-1.546 3.873zm11.4 33.421c.51 3.6-2.054 2.6-2.054 2.6-.51-1.054 2.055-2.6 2.055-2.6m-16.329 5.346s3.128-3.891 6.746-2.818c0 0-5.964 5.4-6.746 2.818m6.728 2.891s11.62-1.29 9.528.782c-2.055 2.073-11.62 1.837-9.528-.782m10.274-23.129s.509 6.473-.273 7.492l-3.619 3.364s.527-8.292-1.036-10.62c-1.528-2.327-3.092-11.364-6.183-13.928 0 0-1.654-.91 0-1.291 0 0 5.419-1.837 6.965 1.018zm3.964-15.565s-3.346 3.128-7.22-4.382c0 0 3.601-1.037 7.22 4.382m2.509-4.71c-6.964-6.964-3.873-8.8-3.873-8.8 6.982 3.91 3.873 8.8 3.873 8.8m-1.982 29.64s0-5.128-.273-6.165c0 0-.51-1.836 1.31-.8 0 0 1.8 5.946-1.037 6.965m.072-18.966s2.073 1.019 2.328 4.928c0 0-4.128-3.6-2.328-4.928m2.51 8.456s-1.291 3.982-5.164 1.6c0 0 2.309-2.11 5.164-1.6m.254 17.91c-1.272 1.037-3.618 3.619-4.382 2.582-.782-1.036 5.419-6.728 5.419-6.728zm2.928-23.802c-2.564-5.673-.51-6.691-.51-6.691 3.365 1.29.51 6.691.51 6.691m-.618 13.038c2.6-9.038 4.655-7.492 4.655-7.492-1.8 9.055-4.655 7.492-4.655 7.492m-20.766-99.355s-6.564-6.418-7.928-9.146c0 0-8.928-7.037-8.255-8.6 0 0 .69-6.747 10.655 1.363 0 0 8.62 7.273 5.528 16.383m-3.146 32.93c-3.873 3.146-2.309-1.527-2.309-1.527 1.818-.764 2.31 1.528 2.31 1.528M424.807 611s-1.036-1.273-3.873 0c0 0-5.2 2-2.582.019 0 0 2.528-3.71 9.037-2.364 0 0 1.037 2.309-2.582 2.345m.728-18.274H444.9c-.945 2.073-3.2 4.655-8.546 4.31 0 0-7.11-.419-10.82-4.31m4.965 8.473s1.8.746 5.418 1.037l4.655-.29s.51 4.418-13.183 2.636c0 0-15.765 3.964-18.62 7.528 0 0 .528-9.874-3.09-14.001 0 0 8.8-5.419 24.82 3.09m36.021-72.351c3.855.273-2.964 4.146-2.964 4.146-1.49 1.182-7.146 2.673-7.146 2.673l-11.874 7.746c-5.055 3.546-21.965 19.565-21.965 19.565-8.31 6.837-10.692 4.473-10.692 4.473l-5.055-5.055c2.964-7.437 32.057-24.075 32.057-24.075 4.892 1.11 6.856-3.818 6.856-3.818 5.618-9.237 12.164-9.546 12.164-9.546 2.382-.582 6.82-5.019 6.82-5.019 4.781-2.11 1.508 1.782 1.508 1.782l-2.673 1.764c-5.327 8.782 2.964 5.364 2.964 5.364m-111.5-219.33a502.773 502.772 0 0 1 43.058-85.28h46.313l-.673 1.636-22.038 83.644zm-14.638 42.277a561.637 561.637 0 0 1 11.855-35.04h67.552l-9.528 36.149h-21.038l-10.22 43.458h-50.113a509.677 509.677 0 0 1 5.018-21.256l17.911-23.311zm-48.514 148.977 17.22 20.347h3.219c.69 13.11 1.854 26.475 3.727 37.003-3.946 5.073-9.619 13.51-16.874 27.348l-.037.054H235.92a460.005 460.005 0 0 1-10.074-64.75h15.31v-20.003Zm-50.713-69.643v-27.548h23.584zm44.567 62.37h-44.567v-52.66zm17.566 174.942c-1.037 1.818-6.983 13.183-6.983 13.183s-3.618 1.818-2.073-6.455c0 0 .782-8.8 1.564-11.383 0 0 5.146-8.8 1.036-10.346 0 0-4.655-2.055-6.727 8.8 0 0-1.037 11.874-1.546 13.165 0 0-1.055 3.364-1.546 6.22 0 0-3.618 4.509-3.11 4.509 0 0-11.891-14.838 2.056-38.622l2.6-.255s3.091 1.782 8 1.019c0 0 4.656-2.31 4.656-.51 0 0-1.8 3.873.781 4.146 0 0 5.928-.782 3.346 3.073 0 0 1.473 7.292-2.054 13.456m-1.019 36.985c3.437-13.601 11.547-14.274 11.547-14.274 7.4-1.418 10.837-4.891 10.837-4.891 11.201-4.873 6.382 5.564 6.382 5.564-.472 1.255-5.345 2.746-5.345 2.746-6.547 2.236-13.438 9.491-13.438 9.491-4.655 2.928-7.564 13.074-7.564 13.074-4.328 5.71-3.8.364-3.8.364-.528-3.11 1.381-12.074 1.381-12.074m71.152 11.201s.855-2.418-3.637-1.509c0 0-6.182 2.019-7.746-.382 0 0 1.055-2.945 2.946-2.4l4.473 1.2h6.2s3.456-.69-.345-3.436c0 0-3.255.327-4.127-.2 0 0-1.728 0-2.055-1.728 0 0 .654-.854 1.364-2.4 0 0 1.2-2.237 2.927.691 0 0 3.455 3.964 10.347 3.964 0 0 2.745 0 4.818 3.291 0 0 2.928.491.164 2.564 0 0-2.419-.327-2.946-1.546 0 0-5.837-1.018-3.946 2.055 0 0 5.183 2.6 1.91 8.62 0 0 .163 3.636-6.892 6.018 0 0-13.638 1.218-19.984 1.054l-8.619 2.055s-3.636 1.764.51-2.236c0 0 8.273-5.674 9.637-5.674 0 0 17.056-7.4 15.001-10m9.856 21.874c-.491-1.145-.782-3.473 2.29-6.382 0 0 6.238-4.128 6.82-12.729 0 0 4.782-8.928 7.746-5.346 0 0 10.4 4.437 14.837-5.982 0 0 1.8-2.636 4.455-.564 0 0 6.255.51 12.092-4.327l6.292 21.874c-32.349 5.4-52.823 12.965-52.823 12.965l-1.71.491m-37.603 27.166-7.91-.109s-2.6 1.727-6.037-1.382l15.856-1.382s.291-.163.546.02a109.137 109.137 0 0 0-2.455 2.854m253.06-548.668h-43.477l-.2-.473s-32.385-56.787-42.731-69.588c-2.91-3.564-5.71-5.146-8.256-5.582v-9.674c7.328.073 14.602.327 21.82.818a455.787 455.786 0 0 1 72.843 84.499m69.68 0H608.08c-32.93-48.968-64.097-77.08-71.77-83.68a350.94 350.94 0 0 1 28.22 3.782 385.962 385.962 0 0 1 103.882 79.898m-86.262-76.407a366.797 366.796 0 0 1 154.887 76.407h-61.97c-37.04-40.804-73.606-65.152-92.917-76.407m75.37 168.924a520.902 520.901 0 0 0-44.676-85.28h62.078a422.329 422.329 0 0 1 57.933 85.28zm73.37 44.15h-57.514a514.81 514.81 0 0 0-12.946-36.913h76.043c8.073 16.438 14.147 31.385 18.62 43.822-7.146-4.4-15.402-6.91-24.202-6.91M719.508 493.5h-27.22v-57.332zm-27.22-97.136v-4.073h30.493c4.946 0 9.492 1.51 13.11 4.073zm49.895 7.22a17.183 17.183 0 0 1 1.8 7.654c0 10.474-9.51 18.947-21.202 18.947h-30.494v-26.602Zm-56.278 163.632c2.073-7.71 3.655-26.312 4.782-45.022h1.6v-21.42h30.657l10.365 21.765h43.513a384.58 384.58 0 0 1-9.619 62.515l-71.006.272a173.325 173.325 0 0 0-10.292-18.11m4.91 27.566c-2.31-.146-9.201-11.747-9.201-11.747-5.365-11.492-8.365-8.2-8.365-8.2-4 2.127 4 12.128 4 12.128 6.983 9.946 6.528 13.801 6.528 13.801-2.182 2.164-7.291-4.018-7.291-4.018-3.364-1.346-7.092-12.783-7.092-12.783-2.054-5.31-5.782-3.4-5.782-3.4-2.364 1.163 3.073 10.528 3.073 10.528.71 1.036 2.291 10.164 2.291 10.164-2.655 1.691-8.619-8.237-8.619-8.237-1.582-4.182-3.637-4.291-3.637-4.291-6 .963 3.528 11.292 3.528 11.292 7.292 8.946 12.347 6.637 12.347 6.637 2.782 1.163 3.8-3.437 3.8-3.437 2.691 2.727 7.382 2.455 7.382 2.455 2 1.163 9.801 19.929 9.801 19.929-.436 3.345-6.546-3.182-6.546-3.182-3.982-3.328-7.8-14.42-7.8-14.42-7.765-4.782-2 8.71-2 8.71 5.327 11.42.4 7.019.4 7.019-1.237-.837-4.346-5.946-4.346-5.946-2.855.127-6.274-8.346-6.274-8.346-3.255-7.146-4.382-.218-4.382-.218-1.4 1.709-4.8-2.328-4.8-2.328-.2-1.31-5.783-3.673-5.783-3.673.073-1.036.618-6.528.618-6.528-5.11-6.037-1.345-8.528-1.345-8.528 12.11.673 9.91-20.674 9.91-20.674 4.091-18.693 17.638-.873 17.638-.873 2.8.654 18.31 30.202 18.31 30.202 4.728 8.02-6.364-2.036-6.364-2.036m6.383 26.13c-5.128-5.983-6.237-19.02-6.237-19.02 1.545-.146 6.073 2.418 6.073 2.418.2.11 8 20.093 8 20.093.546 4.182-7.836-3.491-7.836-3.491m5.2 23.802c-2-1.382-4.782-12.42-4.782-12.42 3.364.164 1.91-1.709 1.91-1.709 1.908-1.964 4.963.418 5.89.8 2.255 1.055 7.565 18.82 7.565 18.82 1.837 4.237-10.583-5.491-10.583-5.491m-18.165-13.929c.618-1.745 5.2-.218 5.2-.218 1.437.382 9.11 18.329 9.11 18.329.873 7.837-8.655-7.182-8.655-7.182-1.473-1.655-5.655-10.929-5.655-10.929m.964 20.548c-.71-2.073-.819-2.364.436-2.819.527-.782 1.291-.436 1.291-.436l2.219 5.364.018.038.273.654h-.073c.11 1.164-2.073-.582-2.073-.582a3.728 3.728 0 0 1-2.09-2.218m-.837 23.966c-1.637-1.819-5.673-13.256-5.673-13.256-3.346-8.637 1.563-6.637 1.563-6.637 4.455 3.837 5.528 3.219 5.528 3.219.673.019.418 1.563.418 1.563-1.963 1.291-.89 3.746-.89 3.746l.963 8c-.2 6.874-1.91 3.365-1.91 3.365m-16.037 51.404c-2.655 1.582-3.218-3.945-3.218-3.945-2.164-4.8 2.036-2.819 2.036-2.819 3.782.346 11.583 6.274 11.583 6.274 3.928 3.527.564 2.109.564 2.109-.673-.182-10.965-1.619-10.965-1.619m-11.746 39.404s-3.928 2.382-5.983-.818l-12.437-2.819c-5.637-5.237-13.802-11.728-20.693-16.983l.127-2.146 11.838 1.491s5.091 1.291 7.673 1.255c0 0 9.146 3.6 8.22 7.855 0 0-.71 6.71 5.163 3.564 5.855-3.164-1.054-9.546-1.054-9.546s2.818-1.418 5.964 4.619c3.145 6.055-2.037 9.218-2.037 9.218s-.327 6.201 4.582 1.291l1.582-3.909s1.6-.945 2.364 1.346c.728 2.273.346-.146.346-.146l4.382 5.073s-7.674 1.473-10.037.655m-7.91 22.002a9.892 9.892 0 0 1-.982.255c-.473-.8-1.182-.237-1.182-.237l-1.036-11.31c3.473-.291 11.328 1.364 11.328 1.364 1.036.037 5.237 5.455 5.237 5.455 3.073 3.782.254 4.673.254 4.673-6.037-3.055-13.619-.2-13.619-.2m-3.71-17.02c0-.582-.363-1.327-.981-2.254l14.42 2.018c-3.601 2.927-6.11 1.073-6.11 1.073l-7.292-.273zm-91.499-178.361-.909 2.746c-4.346 14.637 10.82 14.8 10.82 14.8 7.873 13.82 24.183 14.711 24.183 14.711 10.638 12.438-.454 19.566-.454 19.566-2.819-2.51-8.783-2.51-8.783-2.51-5.328 5.055-7.073 4.383-7.073 4.383-12.22-5.146-13.129 12.382-13.129 12.382-5.527 2.964-4.527 12.238-4.527 12.238a14.365 14.365 0 0 0-2.982 6.491H504.07v-84.807zm-32.184-71.188v-20.766h73.115c.02 7.037-.037 12.929-.2 16.71-7.182 6.329-6.51 15.584-6.51 15.584-5.818 3.6-4.709 15.82-4.709 15.82l-25.566-16.802c-3.91-10.346-13.692-10.856-13.692-10.856l-5.055-5.673c-12.783-5.982-8.51 3.455-8.51 3.455 1.128 1.255 1.273 3.619 1.273 3.619l-2.164 1.69c-2.036 5.238 3.964 9.42 3.964 9.42 1.782.4 22.184 13.656 22.184 13.656 1.346 2.454 11.492 13.128 11.492 13.128 2.2 3.691 16.31 12.183 16.31 12.183-3.672 7.328-4.073 11-3.69 12.82H504.07V521.54zm61.114-117.956 11.256 48.968c.29 12.71.6 28.002.709 40.949h-73.08v-84.135h-17.201v-5.782zm-.873-94.063-22.31-83.644-.728-1.637h45.022a539.667 539.667 0 0 1 44.622 85.28zm68.698 44.15v42.692h-30.403l-9.91-43.785h-16.893l-9.564-35.822h67.642a581.647 581.647 0 0 1 13.31 36.913zm-28.767 49.913h28.766V493.5h-8.4zm12.347 174.252s-4.728.054 3.509-14.438c0 0 5.71 3.364-1.2 7.564 0 0 .764 7.62-2.31 6.874m15.911 24.73c-1.31.18-14.892-2.328-14.892-2.328-1.018-5.255-4.255-2.71-4.255-2.71-1.71 3.11-4.637-.272-4.637-.272-5.164-.29-5.928-5.346-5.928-5.346-2.8-.891-10.637-14.274-10.637-14.274 3.4-.6 5.11-3.346 5.11-3.346 2.763 6.128 7.51 4.255 7.51 4.255 2.636-.873-.546-3.873-.546-3.873-5.564 2.255-4.4-5.164-4.4-5.164-6.856-7.11-1.583-8.874-1.583-8.874 6.42-8.728 10.638-5.655 10.638-5.655 2.09-.382 5.891 1.346 5.891 1.346l-4.255 2.364c-9.982-2.091-6.382 2.764-6.382 2.764 1.31.072 11.583 1.381 11.583 1.381 2.036.364-2.273 8.674-2.273 8.674-3.073-2.237-3.928.836-3.928.836 1.782.364.6 3.164.6 3.164-2.29-.654-1.182 3.019-1.182 3.019 1.273.345 3.837.727 3.837.727 1.473 1.637 4.746 3.382 4.746 3.382 9 .982 12.692 9.71 12.692 9.71-1.346 5.637 1.982 6.255 1.982 6.255 1.8.11.31 3.964.31 3.964m-9.893 10.62c-1.4-2.91-18.11-10.238-18.11-10.238-4.037-1.8-14.001-13.928-14.001-13.928-3.655-3.819-2.073-4.8-2.073-4.8l3.654 4.109c-.181 3.382 10.074 10.346 10.074 10.346 6.655 6.31 21.075 7.6 21.075 7.6 14.274-.545 15.256 4.928 15.256 4.928-3.619-.2-15.875 1.982-15.875 1.982m18.802 5.037c-5.564-2.582-18.256 2.564-18.256 2.564-5.564 3.291-5.2.764-5.2.764 1.709-3.255 16.02-4.855 16.02-4.855 14.219-4.146 18.964 3.618 18.964 3.618 2.873 2.637-11.528-2.09-11.528-2.09m4.728 10.946c-.8.236-17.038-5.564-17.038-5.564 10.928-6.146 26.893 5.327 26.893 5.327zm6.928 19.129-11.274-5.237-6.637-2.255c-2.018-.473-.727-2.091-.727-2.091l.472-2.582c-.672-3.31 1.51-2.346 1.51-2.346 6.091 5.51 11.128 5.092 11.128 5.092 9.783.854 9.82 6.582 9.82 6.582.126 3.764 2.472 2.346 2.472 2.346 2.218.109 2.291-4.51 2.291-4.51-2.164-7.728-9.946-7.819-9.946-7.819-3.6 0-4.364-1.8-4.364-1.8 9.546-1.182 14.11 3.728 14.11 3.728 5.655 7.364-.436 11.51-.436 11.51-3.346 1.218-8.42-.618-8.42-.618m-12 5.073c-.691-6.619 2.145-4.892 2.145-4.892 2.455 2.546 11.165 7.31 11.165 7.31.073 1.91 1.4 6.619 1.4 6.619 1.218 3.037-1.8 1.11-1.8 1.11-.818-.728-10.783-1.765-10.783-1.765-2.218-.454-1.764-2.145-1.764-2.145zM627.1 691.01s-.436-7.947.528-10.129c0 0 11.982-10.746 21.51-11.782 0 0 5.292-1.964 5.82-2.273 0 0 13.6.527 10.055 2.418 0 0-13.802 9.619-20.657 11.837 0 0-2.4.038-3.018 1.746 0 0-7.437 6.855-10.001 6.546zm-22.893 15.328c-.69-1.582 3.291-3.364 3.291-3.364 1.019.419-2.618 4.928-3.29 3.364m-.819-7.473c6.455-5.128 8.2-3.182 8.2-3.182l-2.49 2.982c-2.473 2.982-12.165 5.328-5.71.2m-12.147-2.891c-.272-4.674 8.42-7.31 8.42-7.31 5.036-2.073 10.255-8.019 10.255-8.019 1.527.636-2.964 6.819-2.964 6.819-13.147 14.056-15.71 8.51-15.71 8.51m1.527 6.127c.364-1.563 4.237 1.2 4.237 1.2 1.509 3.383-4.237-1.2-4.237-1.2m3.364 8.092c-3.219 7.073-9.91 1.527-9.91 1.527 1.273.328 9.91-1.527 9.91-1.527m-9.765-3.8c.619-1.546 2.91-.891 2.91-.891.272.436.145.709-.128.854l.546.073c.854.127-2.91.89-2.91.89a.8.8 0 0 1 .455-.817l-.873-.11m4.437-45.676-2.837-.437-2.618-4.291s7.764.182 5.455 4.728m5.291-9.565c2.146 3.237-3.527 2.928-3.527 2.928l-3.728-2.546zm2.364-97.827c4.164 4.982.473 7.455.473 7.455-7.055-1.254-9.346-8.218-9.346-8.218-4.164-11.529 0-11.329 0-11.329-.255 4.746 8.873 12.092 8.873 12.092m-4.018-26.366s10.055 12.147 10.546 14.274l-4.364 9.601s-13.128-16.201-6.182-23.875m13.092 10.383s-8.274-8.728-3.764-18.929l12.765 17.638zm19.983 84.608s-12.11-.855-20.42-10.238c0 0-14.637-11.2-4.964-23.73 0 0 10.747 16.639 17.875 19.33 0 0 14.183 5.437 14.074 7.728 0 0-.455 3.855-6.565 6.91m-23.947-6.82s7.273 9.329 15.037 9.22c0 0 4.692 9.055-.945 12.91 0 0-9.383-8.783-13.492-9zm-6.11 17.493s14.292 3.637 6.31 12.51c0 0-1.71 3.273-3.764 2.892l-3.71-3.037zm-3.855-54.023c-1.509 2.71-8.382 8.71-8.382 8.71-2.619-9.273 6.364-16.038 6.364-16.038 10.383-7.582 10.728-.836 10.728-.836.582 1.618-8.71 8.164-8.71 8.164m1.928 26.748c5.146 1.273 2.236 21.093 2.236 21.093-1.582.982-3.382-4.055-3.382-4.055-1.91-7.873 1.146-17.038 1.146-17.038m20.31 100.827c-.963 3.291-7.927 3.182-7.927 3.182.345-1.89 3.29-3.709 3.29-3.709zm-.727-5.091c-1.363-3.546 1.728-7.91 1.728-7.91-.038 5.164-1.728 7.91-1.728 7.91m-1.218-29.294s2.618 4.273.31 8.82c0 0-3.274-1.71-.31-8.82m1.255 15.238s.29 4.437-3.837 4.2c-4.146-.2 5.8-8.091 3.837-4.2m30.348-48.531s-6.8 11.037-13.583 12.237l-13.474 4.946s-11.765 7.164-14.056 11.692l-.364-3.128-2.546-1.145-.381-2.091-2.564-.673-.637-2.364s5.873-3.564 11.329-3.8c0 0 4.982-1.273 8.619-6.51 0 0 15.437-17.547 17.001-17.965 0 0 1.437-2.546-1.964-1.946 0 0-3.982-2.8-.873-3.164 0 0 3.437 3.564 6.565 3.2 0 0 9.71 2.328 6.928 10.71m-23.675 56.751 3.436-1.618c1.182 2.145-4.255 7-4.255 7-.163-1.8.819-5.382.819-5.382m-4.6-25.42-.073-3.619s5.255 3.11 4.327 6.455c-.963 3.31-4.255-2.836-4.255-2.836m2.71 7.964s5.8 7.728 3.31 11.492c-2.51 3.727-3.31-5-3.31-5zm28.311-31.021c1.691-2.328 4.11.764 4.11.764l-.273 1.873-5.491-.473c-.8-1.055 1.654-2.164 1.654-2.164m.618 11.11s3.437 3.782-2.127 4.528l-16.656 8.419s-5.073 4.218-2.546-4.255c0 0 2.055-3.019-2.236-3.4 0 0-3.782-.038-.2-2.783 0 0 5.728-3.836 10.619-4.782 0 0 10.11-2.055 13.147 2.273m-30.603-109.646c-.473 3.873-2.4 6.091-2.4 6.091-1.891 1.219-.11-2.582-.11-2.582-5.364-1.582-4.182 5.474-4.182 5.474-.709 3.563-1.745-1.4-1.745-1.4-2.219-1.928-5.037 2.6-5.037 2.6-2.91 1.127-.4-7.037-.4-7.037a15.092 15.092 0 0 1 7.419-8.656c17.656-5.527 20.638 7.165 20.365 6.765l-.91 2.563c-.908 2.273-3.4-4.055-3.4-4.055-3.782-7.2-4.836 3.11-4.836 3.11-3 2.655-1.582-4.237-1.582-4.237-2.764-6.637-3.182 1.364-3.182 1.364m-17.056-47.459h3.545l4.019 17.365-4.528-5.6c-1.036.255-1.982.563-2.873.836zm-.2-16.347 2.09 9.074h-1.981zm-61.442 39.076-2.582-1.927s-3.055-4.019 1.582-1.691c0 0 4.2 4.655 6.546 5.382 0 0 6.491.655 11.655 10.165 0 0 1.71 5.037 6.62 4.218 0 0 28.184 18.166 30.747 25.712l-5.327 4.764s-2.491 2.255-10.438-5.019c0 0-16.037-16.91-20.892-20.729l-11.456-8.328s-5.564-1.8-6.964-3.055c0 0-6.62-4.218-2.746-4.31 0 0 8.092 3.874 3.255-5.182m14.62 69.225h21.147c-3.091 5.637-12.529 5.655-12.529 5.655-6.182.11-8.037-3.528-8.619-5.655m23.275 20.438c-2.782-1.418-3.891-.2-3.891-.2-3.6-.2-2.437-2.473-2.437-2.473 6.565-1.036 8.892 2.837 8.892 2.837 2.528 2.073-2.564-.164-2.564-.164m9.11 7.255s.637-2.291 2.4-1.437c0 0 1.31 4.728-2.4 1.437m-15.22-14.056c-13.764 1.073-13.019-3.273-13.019-3.273l4.619.491a18.002 18.002 0 0 0 5.473-.71c16.456-7.69 24.948-1.818 24.948-1.818-3.819 3.983-3.837 13.874-3.837 13.874-2.655-3.727-18.183-8.564-18.183-8.564m-2.764 97.536c-1.946-2.2 9.582-.29 9.582-.29 1.946 2.709-7.637 2.454-9.582.29M564.73 682.9c-.31 1.037-.582 6.183-.582 6.183-2.782-1.164-.673-7.001-.673-7.001 1.873-.946 1.255.818 1.255.818m2.473-2.582c-4.019 2.182-5.073-1.891-5.073-1.891 2.873-.345 5.073 1.891 5.073 1.891m-2.128-10.183c1.728 1.382-2.582 4.764-2.582 4.764.455-3.854 2.582-4.764 2.582-4.764m-1.345-10.764s-2.837-5.092 4.346-8.565c0 0 3 1.964-4.346 8.565m2.254 4.855c3.91-5.2 7.474-4.019 7.474-4.019-4.273 7.292-7.474 4.019-7.474 4.019m4.946 33.348s-2.636.873-1.927-2.673c0 0 2.51 1.655 1.927 2.673m10.092-31.984c1.637.472-.055 1.29-.055 1.29-3.236 2.383-5.255 11.347-6.928 13.584-1.69 2.236-1.618 10.546-1.618 10.546l-3.418-3.564c-.71-1.073.146-7.492.146-7.492l4.873-13.728c1.69-2.746 7-.636 7-.636m1.146-3.492-1.782-.364-1.346-3.945s4.492 3.109 3.128 4.309m-5.4-10.692s-5.128-1.055 5.69-4.655c0 0 4.183 3.873-5.69 4.655m-11.62 47.713c-.818.982-3-1.727-4.237-2.836l-.818-4.182s5.91 6.037 5.055 7.018m-5.982-13.71s-2.91 1.418-4.237-7.728c0 0 2.146-1.436 4.237 7.728m.964-19.692s2 1.163-.873 6.673c0 0-2.564-5.546.873-6.673m24.893 35.348c-.928 2.546-6.583-3.164-6.583-3.164 3.673-.818 6.583 3.164 6.583 3.164m-6.983-9.692c-.218-1.018 1.673-12.292 1.673-12.292 7.692-17.747 11.11-13.946 11.11-13.946 1.364-1.473 2.746 6.618 2.746 6.618-.637 2.037 9.146 2.837 9.146 2.837 3.964 3.564-2.818 9.419-2.818 9.419-10.729 2.528-13.765 10.91-13.765 10.91.272-.509-8.092-3.546-8.092-3.546m32.821 29.512c2.019-3-3.873-2.291-3.873-2.291-.563 1.2-3 1.418-3 1.418-2.637-2.218.327-2.582.327-2.582 2.219-3.164 4.983-3 4.983-3 6.873.364 10.528-3.419 10.528-3.419 1.873-2.854 2.964-.545 2.964-.545a12.947 12.947 0 0 0 1.254 2.491c-.454 1.71-2.163 1.618-2.163 1.618-.891.473-4.128-.037-4.128-.037-3.946 2.527-.546 3.4-.546 3.4l6.201.364 4.546-.982c1.91-.436 2.782 2.564 2.782 2.564-1.673 2.327-7.764-.055-7.764-.055-4.437-1.127-3.692 1.327-3.692 1.327-2.2 2.473 14.438 10.783 14.438 10.783 1.382.055 9.328 6.2 9.328 6.2 3.928 4.165.4 2.256.4 2.256l-8.492-2.51c-6.364-.182-19.892-2.11-19.892-2.11-6.928-2.781-6.564-6.381-6.564-6.381-2.946-6.183 2.363-8.51 2.363-8.51m52.878-15.129s4.782 1.31 6.419 2.764c0 0 6.091 5.291 7.382 7.473 0 0 3.873 4.837-1.69 2.328 0 0-8.984-2.891-13.475-9.347 0 0-.218-2.436-1.09-2.109 0 0-1.092-2.327 2.454-1.109m-13.674-11.801-4.346.491s-5.473 2.455-6.019 3.128l-4.145-.219s-.455-.89.818-2.545c0 0 1.636-1.31 2.418-3.146 0 0 4.728-3.928 5.292-5.419 0 0 14.674-6.637 15.565-6.946 0 0 8.019-8 16.365-6.018 0 0 4.582 4.545 5.728 9.11 0 0 2.672 4.8-2.71 1.927 0 0-4.364-2.128-5.946-1.691 0 0-.618-1.273-10.055 4.273 0 0-12.092 6.964-12.965 7.055m29.239-134.976-.618-.527c-25.803-15.347-23.166 13.329-23.166 13.329.345 16.074-8.055 11.473-8.055 11.473-3.292.419-8.42-3.727-8.42-3.727-1.145-.655.783-3.491.783-3.491-1.655-2.2 1.127-4.71 1.127-4.71 4-2.182 3.273-5.491 3.273-5.491-5.146-3.546-2.727-10.256-2.727-10.256.145-8.037-5.437-9.528-5.437-9.528-3.255-5.819-11.147-8.31-11.147-8.31l-3.382-3.764-10.019-12.437h36.64l-4.71-20.766h6.764v21.42h33.567c-.982 16.675-2.418 32.803-4.473 36.785M544.729 316.756l8.965 38.585h17.583l9.437 41.022H504.07v-79.607zm-40.659-99.754v-41.095l15.493 40.258.29.837zm18.347 7.237 2.31 6.455 18.329 78.825H504.07v-85.28zm39.15 500.68a339.121 339.121 0 0 0-57.497-5.218v-34.948h48.987c.381.363.654.527.654.527 1.218 11.837 5.8 17.856 10.292 21.002l-5.164 17.929zm43.076 11.02a302.21 302.209 0 0 0-39.076-10.292l5.164-16.438c1.873.418 3.11.382 3.11.382 2.763-1.946 4.4.818 4.4.818 3.89 10.638 14.528 6.728 14.528 6.728 3.128-3.382 7.42 5.764 7.42 5.764.126 8.601 6.145 13.11 6.145 13.11a9.492 9.492 0 0 1 1.764 2.455l-3.455-2.527m72.134 71.77c.309 1.036 1.618 5.455-.182 3.655-1.8-1.873-3.31-9-3.31-9-1.145-1.437-3.036-17.603-3.036-17.603-1.145-1.236-3.418-7.237-3.418-7.237.927-4.254 3.91-1.854 3.91-1.854 3.69 5 4.6 10.583 4.6 10.583l1.254 12.128c-.618 1.91.182 9.328.182 9.328m14.256-24.402c1 .255 1.727 3.182 1.727 3.182l-.382 13.801-1.073.237c-3.982-5.874-2.473 1.454-2.473 1.454l-1.072.473c-2.019-4.11-3.292.31-3.292.31l-2.69-1.328c1.181-12.092-1.874-19.947-1.874-19.947.11-4.964-5.727-12.02-5.727-12.02 3.873-1.69-1.746-6.31-1.746-6.31-11.02-3.709-16.038-19.328-16.038-19.328-1.145-4.546-15.62-14.783-15.62-14.783-4.982-.473-7.255-16.093-7.255-16.093-1.436-8.546 3.964-9.819 3.964-9.819l10.329-2.71c8.582-5.254 6.837 1.237 6.837 1.237.309 2.655.109 11.22.109 11.22-.073 1.163.927 1.763.927 1.763-.8 11.874 12.965 25.53 12.965 25.53l4.2 8.51c.437 1.909 8.328 22.002 8.328 22.002 3.255 6.728 9.856 12.619 9.856 12.619m-3.146-57.987s-2.364-10.274-6.855-13.474c0 0-6.492-7.6-12.91-10.183 0 0-4.783-1.745-5.183-3.018 0 0-4.273-10.692 6.656-5.219 0 0 3.236 3.71 10.564 5.437 0 0 8.055 1.127 10.783 14.929 0 0 1.418 9.037.727 12.092 0 0 .218 5.364-3.782-.564m19.565-34.53a66.697 66.697 0 0 0-1.236-6.274c-.436-1.327-.836-13.237-.836-13.237-1.492-10.965-6.256-9.128-6.256-9.128-4.2 1.309.51 10.364.51 10.364.618 2.637.927 11.456.927 11.456 1.127 8.31-2.418 6.328-2.418 6.328s-5.31-11.674-6.256-13.529c-3.182-6.364-1.363-13.546-1.363-13.546-2.364-4 3.545-2.928 3.545-2.928 2.6-.11.982-4.091.982-4.091.091-1.764 4.619.782 4.619.782 4.873 1 8.055-.619 8.055-.619l2.564.4c12.674 24.53 0 38.713 0 38.713.51.038-2.837-4.691-2.837-4.691m72.316-287.208h3.982V493.5H765.95l-18.857-35.876.71.328c17.22-7.383 32.039-22.239 32.039-51.441 0-.964-.02-1.964-.073-2.928m-632.53 189.144h83.844c6.455 27.02 15.91 56.696 29.694 84.808h-77.662a360.214 360.214 0 0 1-35.876-84.808m155.723 160.596c-1.545 1.382-8.273.182-8.273.182.69-2.564 6.018-1.527 6.018-1.527 4.146.509 2.255 1.345 2.255 1.345m-5.691-6.364s-13.765 6.219-14.31 6.746c0 0-6.528 4.637-1.019-2.436 0 0 12.22-15.674 12.929-17.402 0 0 2.582-3.455 2.4-4.637 0 0 1.218-1.6 5.182-.545 0 0 7.4.545 9.801-1.873l5-1.236s3.619-1.182 1.382 3.109c0 0-17.056 4.164-20.674 9.164 0 0-4.328 3.582-3.619 8.074 0 0 2.419 1.727 3.619-2.055 0 0 5-7.237 12.583-8.092 0 0 5.51-2.09 1.89 4.637 0 0-2.054 6.037-3.272 7.055 0 0-.164 1.019-3.11-.181 0 0-7.237-1.2-8.782-.328m20.856 8.783s-5.873 4.31-2.073 6.2c0 0-6.2 6.728-6.382 11.71 0 0-3.455 7.71-2.928 19.82l-2.764 1.219s-1.018-4.473-3.273-.546l-1.018-.509s1.891-7.237-2.418-1.527l-1.037-.346.346-13.801s.873-2.928 1.91-3.091c0 0 6.872-5.528 10.51-12.074 0 0 8.945-19.638 9.473-21.547l4.636-8.256s14.493-12.928 14.31-24.82c0 0 1.037-.491 1.037-1.71 0 0 .237-8.527.673-11.2 0 0-1.364-6.528 6.91-.855l10.146 3.291s5.346 1.546 3.455 9.983c0 0-3.091 15.492-8.11 15.674 0 0-14.965 9.492-16.365 13.965 0 0-5.855 15.31-17.038 18.42m-6.728 44.277s1.219-7.42.691-9.31l1.891-12.038s1.219-5.528 5.164-10.346c0 0 3.11-2.237 3.8 2.055 0 0-2.581 5.873-3.8 7.073 0 0-2.745 16.02-3.945 17.401 0 0-1.91 7.056-3.8 8.801-1.892 1.71-.346-2.618 0-3.636m-19.857-21.548.673 14.583.29 1.946c-7.71-5.31-15.2-10.82-22.456-16.693zm35.349 2.946s-2.746-1.055.527-4.637c0 0 4.491-5.2 5.51-5.2 0 0 4.982-.8 8.764-.873a130.92 130.92 0 0 0-6.673 9.764 14.91 14.91 0 0 0-8.128.946m49.113 31.348s-14.11-20.129-25.075-27.948c.31-3.31 1.291-13.383 2.273-15.838 0 0-.236-3.69 3.2-7.418 7.001-4 115.102-63.333 257.515-12.038l11.291 11.601c12.529 4.819 11.492 13.401 11.492 13.401 1.019 3.019 1.473 17.02 1.473 17.02l3.128-.11c-.29.51-9.656 16.511-12.365 15.802l-3.455 4.146-3.455-2.746s-113.028-63.387-246.022 4.128m25.493 4.146c8.274-2.782 12.42-1.364 12.42-1.364 10.31 4.8.69 11.692.69 11.692-1.4 4.8-12.419 6.892-12.419 6.892-16.547 2.745-18.583-9.656-18.583-9.656-.71-17.238 38.585-24.13 38.585-24.13l.673 8.292-13.783-2.09-9.637 3.472zm203.31-6.892c-6.22-7.582-25.494-.69-25.494-.69l-.709-10.347c29.657 4.128 35.84 15.874 35.84 15.874 10.346 17.183-6.892 19.275-6.892 19.275-22.038 0-24.111-13.784-24.111-13.784 4.819-10.328 18.602-2.745 18.602-2.745 6.218-1.382 2.764-7.583 2.764-7.583m211.51-500.499h-77.353a422.074 422.074 0 0 0-57.46-85.28h63.952a365.942 365.942 0 0 1 70.86 85.28M498.725 117.83c-210.346.855-380.18 170.652-379.325 379.234.855 208.564 172.052 376.98 382.398 376.088 210.365-.872 380.198-170.615 379.325-379.197-.854-208.6-172.033-376.998-382.398-376.125"/><path fill="#2a58a7" d="M501.41 971.942c-266.025.327-481.971-212.928-482.28-476.315-.328-263.388 215.055-477.17 481.116-477.498 266.023-.345 481.952 212.91 482.28 476.28.345 263.405-215.056 477.187-481.117 477.533M499.391 0C223.239.346-.345 222.257 0 495.645c.327 273.388 224.492 494.753 500.608 494.408 276.152-.31 499.718-222.22 499.39-495.645C999.673 221.02 775.526-.345 499.392 0"/><path fill="#2a58a7" d="m495.486 91.501.073 19.274 14.692-.054-.073-19.311 40.35-.145-.055-13.456-95.663.382.072 13.492zM189.707 749.478l-59.933 17.22 8.419 10.183 41.84-11.165-14.82 26.73-13.419-16.238-10.965 3.437 26.857 32.53 30.93-51.914zM304.17 878.856l-12.765-7.365s-2.728-2.454-1.055-5.291c0 0 1.6-3.764 5.419-2.782l21.11 12.22 4.165-6.692-23.766-13.729s-9.565-3.746-15.183 6.51c0 0-5.6 9.674 2.345 15.729l12.547 7.237s2.473 2.29.782 5.727c0 0-1.91 3.292-5.237 1.982l-20.02-11.582-4.2 7.255 22.893 13.237s8.691 4.728 15.947-5.764c0 0 5.836-10.11-2.983-16.692M340.6 896.276l-12.875-6.037 4.746-9.564 12.674 5.91s2.327 2.8.51 6.727c0 0-2.183 4.019-5.056 2.964m14.238 1.328c6.837-12.783-6.146-18.602-6.146-18.602l-23.348-10.637-18.674 39.258 10.583 4.928 6.91-14.71 12.891 6.018c12.001 6.728 17.784-6.255 17.784-6.255M424.014 926.2s-2.51 16.238 12.656 22.275l18.474 2.164.91-7.71-15.348-1.764s-6.728-3.637-6.31-9.946l22.712 2.636.909-7.982-22.547-2.6s1.327-8.583 8.146-8.565l15.492 1.782 1.036-8.11-18.674-2.2s-15.147.127-17.456 20.02M185.533 817.382s-3.528-6.746.345-11.747l17.347 14.875 5.237-6.11-17.256-14.783s5.891-6.383 11.547-2.546l11.855 10.128 5.382-6.164-14.292-12.201s-12.583-8.364-25.638 6.837c0 0-11.147 12.037-1.928 25.511l14.11 12.11 5.037-5.855zM269.082 860c-2.018 7.51-8.946 12.182-15.474 10.4-6.51-1.745-10.165-9.255-8.146-16.747 2.018-7.491 8.946-12.182 15.474-10.437 6.528 1.8 10.164 9.292 8.146 16.783m9.764 2.892c3.019-11.292-4.09-23.039-15.892-26.203-11.8-3.182-23.82 3.4-26.875 14.693-3.055 11.273 4.073 23.02 15.874 26.22 11.801 3.182 23.839-3.418 26.893-14.71M369.596 887.345l-30.33 35.567 9.02 2.654 20.638-23.365 1.563 21.692-14.128-4.182-5.146 6.692 28.512 8.419-1.837-45.04zM396.445 917.799s1.673-10.256 9.237-11.965l19.22 3.582 1.51-7.982-19.22-3.6s-15.73-1.637-20.675 17.855c0 0-3.818 18.93 12.438 24.548l19.474 3.691 1.746-9.255-19.22-3.619s-6.164-1.654-4.51-13.255M242.26 819.406l-18.656-16.056-28.44 32.876 8.038 6.873 14.747-17.165-.018.109 7.8-9.146 9.983 8.564s3.164 3.437-.4 7.6c-3.564 4.165-8.583.583-8.583.583l-8.8-7.565-2.837 27.148 9.946 8.528 1.055-21.674c8.71 5.346 16.074-1.11 16.074-1.11 9.437-11 .091-19.565.091-19.565"/><path fill="#2a58a7" d="M217.905 826.083h.018v-.038zM111.566 583.164l-4.273-14.892-29.894-12.565 24.784-7.092-3.51-12.237-56.168 16.11 3.51 12.201 30.02-8.618-24.129 28.311 4.455 14.62 23.602-29.258zM107.384 711.14l-6.874-13.837s-.654-7.619 4.873-10.71l10.183 20.475 7.2-3.6-10.11-20.33s7.892-3.564 11.62 2.128l6.946 14.02 7.346-3.62-8.382-16.819s-8.365-12.601-26.275-3.655c0 0-14.965 6.728-11.729 22.748l8.292 16.62z"/><path fill="#2a58a7" d="M68.381 613.512c-.036-7.783 5.4-14.11 12.147-14.147 6.764-.038 12.274 6.273 12.31 14.038.018 7.764-5.437 14.128-12.183 14.128-6.764.038-12.256-6.255-12.274-14.02m34.603.11c-.054-11.71-9.982-21.147-22.22-21.093-12.22.055-22.093 9.546-22.056 21.293.054 11.656 10 21.13 22.238 21.056 12.22-.037 22.093-9.546 22.038-21.256M146.387 711.654l-46.258 6.674 5 7.946 30.894-3.892-13.11 17.275-7.874-12.456-8.273 1.637 15.856 25.166 28.384-35.076zM111.29 667.724c13.529-5.255 9.401-17.22 9.401-17.22l-8.819-22.929-40.64 15.42 3.8 9.873 21.13-8.164-.037.091 11.183-4.328 4.728 12.274s1.145 4.546-3.946 6.51c-5.128 1.982-7.855-3.564-7.855-3.564l-4.146-10.82-15.383 22.512 4.727 12.237 11.201-18.565c5.146 8.819 14.656 6.673 14.656 6.673"/><path fill="#2a58a7" d="M96.072 644.816v.054l.036-.072zM813.031 768.016l16.73 18.093-30.913-5.328-7.455 6.892 29.675 32.094 7.837-7.256-18.128-19.601 31.93 6.837 7.655-7.092-29.512-31.857zM868.985 693.367l39.076 21.42 4.91-8.91-38.913-21.602zM899.917 619.229l34.403 12.6-4.2 11.456c-.891 2.364-4.983 2.764-4.983 2.764l-30.62-11.219-3.855 10.528 31.13 11.383c10.8 1.51 16.365-10.546 16.365-10.546l7.746-21.22-42.15-15.402zM956.341 566.135s-4.018 6.746-10.291 6l3.891-23.165-7.946-1.364-3.837 23.057s-8.51-1.782-8.128-8.747l2.655-15.856-8.165-1.872.11.436-3.2 19.056s-.692 15.583 19.038 18.893c0 0 16.074 3.327 22.947-11.947l3.164-18.874-7.619-1.273zM767.635 791.936l36.44 45.04 10.6-8.564-36.421-45.058zM923.801 576.416l-8.11-2.4-9.746 33.148 8.074 2.382 3.527-11.946 35.185 10.364 2.891-9.728-35.185-10.383zM897.742 651.831l-7.474-3.6-14.965 31.148 7.474 3.6 5.382-11.237 32.585 15.638 4.382-9.165-32.548-15.638zM873.485 702.884l-6.6-4.237-18.766 28.984 6.601 4.292 6.746-10.474 28.82 18.656 5.529-8.546-28.821-18.602zM852.203 748.43l-10.291 11.62s-3.037 2.29-5.51.127c0 0-3.4-2.31-1.527-5.964l17.037-19.238-5.727-5.419-19.147 21.602s-5.928 9.02 2.982 16.602c0 0 8.364 7.382 16.237.436l10.11-11.42s2.873-2.109 5.91.219c0 0 2.837 2.545.746 5.691l-16.13 18.202 6.274 5.546 18.438-20.82s6.728-7.965-2.055-17.202c0 0-8.782-7.746-17.347.02M646.158 878.856l-1.982 46.713 8.764-3.455 1.873-31.112 14.565 16.074-13.692 5.474.073 8.437 27.638-10.983-29.202-34.33zM730.291 878.166s-5.782 2.69-12.001-7.22c0 0-5.346-8.91-.673-15.092l17.002-9.655-4-7.073-17.02 9.655s-13.074 8.874-4.255 26.948c0 0 9.31 16.947 25.366 10.728l17.22-9.764-4.637-8.183zM753.25 823.437l9.365 14.547-12.583 8.11-9.364-14.53-8.547 5.51 23.584 36.531 8.728-5.673-9.782-15.165 12.383-7.965 9.782 15.165 8.746-5.655-23.565-36.512z"/>&quot; /&gt;<path fill="#2a58a7" d="M625.932 924.21s-7.6-.582-9.782-6.546l21.838-6.746-2.382-7.673-21.71 6.71s-2.256-8.383 3.981-11.129l14.91-4.637-2.345-7.837-17.965 5.6s-13.765 6.201-7.837 25.33c0 0 4.255 15.838 20.565 15.256l17.765-5.546-2.29-7.382zM550.862 941.682s-7.546-1.364-9.11-7.492l22.402-4.582-1.6-7.855-22.256 4.51s-1.419-8.529 5.073-10.675l15.292-3.073-1.564-8.073-18.42 3.782s-14.328 4.837-10.346 24.457c0 0 2.691 16.183 18.966 17.165l18.238-3.673-1.546-7.6zM591.5 915.011l-14.383 3.2s-3.637.02-4.346-3.182c0 0-1.4-3.873 2.091-5.71l23.839-5.29-1.492-7.747-26.766 5.964s-9.6 3.71-6.8 15.056c0 0 2.455 10.928 12.383 9.983l14.128-3.146s3.4.038 4.473 3.691c0 0 .837 3.746-2.527 4.983l-22.566 5.055 1.837 8.219 25.784-5.8s9.619-2.383 7.855-15.039c0 0-2.564-11.4-13.51-10.237M705.823 867.457c-6.492-12.946-18.038-7.655-18.038-7.655l-21.966 11.001 19.275 38.93 9.473-4.763-10.146-20.202.09.055-5.418-10.747 11.765-5.891s4.4-1.6 6.873 3.31c2.455 4.89-2.818 8.146-2.818 8.146l-10.365 5.182 23.93 13.11 11.728-5.873-19.602-9.365c8.292-5.964 5.219-15.237 5.219-15.237"/><path fill="#2a58a7" d="m684.53 884.86.02-.038h-.038zM528.603 913.573c0-19.13-15.91-19.748-15.91-19.748l-30.876-.018-.29 57.332h13.31l.018-29.857.055.127-.02-15.838h16.53s5.818.728 5.818 7.946c0 7.237-7.728 7.965-7.728 7.965l-14.546-.02 19.456 29.622h16.438l-16.693-22.639c12.692-2.127 14.438-14.874 14.438-14.874"/><path fill="#2a58a7" d="M494.919 921.456h.038l-.038-.054zM501.862 38.78a12.038 12.038 0 1 1 .11 24.074 12.038 12.038 0 0 1-.11-24.075m.019 38.367a25.893 25.893 0 1 0-.218-51.786 25.893 25.893 0 1 0 .218 51.786M65.708 390.266a9.274 9.274 0 0 1 10.492-4.31 9.274 9.274 0 0 1 6.746 11.275 9.274 9.274 0 0 1-11.42 6.491 9.346 9.346 0 0 1-7.018-8.892zM44.87 417.16l12.91 3.382 2.31-8.856c2.363 1.855 5.163 3.328 8.291 4.146a21.93 21.93 0 0 0 26.93-15.365 21.893 21.893 0 0 0-15.947-26.602 22.457 22.457 0 0 0-9.237-.491l2.327-8.837-12.91-3.4-5.037 19.22-8.783-2.31-4.127 15.801 8.764 2.31z"/><path fill="#2a58a7" d="M75.749 352.373h.127v.018l44.258 11.619-14.128 53.95-1.4-.345-14.274-3.746-3.673 14.001 14.292 3.728v-.019c7.673 1.927 15.365-2.091 17.82-9.073l.072.018 14.674-55.986-.018-.019 3.492-13.31-44.023-11.546-13.383-3.473 3.564-13.547-13.11-3.455-3.691 14.056.054.018-.345.927a13.365 13.365 0 0 0 9.692 16.184M832.68 287.984l22.638-15.474 16.42 24.038.09-.054 5.747 8.419 25.511-17.402 1.382-.836a12.71 12.71 0 0 0 3.673-17.584c-.237-.345-.473-.618-.745-.963l-45.44-66.552-11.638 7.983 44.967 65.86-14.583 9.946-44.786-65.533-11.292 7.747 21.475 31.439-22.62 15.474zM141.557 218.146l6.856 4.382-40.64 63.478 11.619 7.455 19.274-30.111 6.692 4.255-19.293 30.148 12.001 7.655 40.64-63.497 13.91 8.91 7.692-12-14.947-9.583-.018.072c-6.073-3.618-13.546-2.455-17.038 2.673l-.09-.054-14.493 22.638-6.691-4.273L167.705 218l-5.382-3.455.073-.145-12.601-8.074a8.092 8.092 0 0 0-.982-.69c-5.928-3.801-13.329-2.892-17.056 1.945l-.11-.091-42.258 66.006 11.874 7.582zM250.765 159.955c3.363-2.91 8.11-3.2 11.437-.855l2.31 2.655.072-.055a9.292 9.292 0 0 1-2.11 11.62 9.2 9.2 0 0 1-12.928-.473c-3.236-3.692-2.673-9.474 1.219-12.892m-16.893 9.419c.273 4.618 1.982 9.182 5.237 12.892 8.11 9.219 22.638 9.746 32.421 1.127 9.783-8.619 11.146-23.057 3.037-32.312l-1.073-1.055-24.82-28.293 12.073-10.601-8.073-9.183-13.656 11.983a11.001 11.001 0 0 0-2.946 15.274l-.072.055 14.037 16.001a24.711 24.711 0 0 0-15.183 15.93 21.275 21.275 0 0 1-.982 8.182"/><path fill="#2a58a7" d="M208.475 157.648c3.891-3.437 9.692-3.273 12.91.436 3.255 3.691 2.692 9.437-1.2 12.874a9.164 9.164 0 0 1-12.928-.455 9.128 9.128 0 0 1 1.218-12.855m-22.311 19.456 8.037-7.037a18.625 18.625 0 0 0 4.164 8c7.274 8.31 20.293 8.747 29.076 1.037 3.109-2.745 5.255-6.128 6.436-9.728a23.337 23.337 0 0 1 .964-8.182 18.82 18.82 0 0 0-12.092-16.22l8.856-7.764-8.329-9.492-16.492 14.492-5.91-6.728-12.564 11.038 5.91 6.71-16.384 14.419zM371.435 118.35c-6.364 2.327-13.547-1.128-16.02-7.82a12.82 12.82 0 0 1 4.055-14.71l6.365-2.363a12.82 12.82 0 0 1 12.655 8.528c2.473 6.655-.69 14-7.055 16.365m7.764-60.042 4.819 13.02-30.894 11.437-3.91-10.547-15.673 5.82 3.91 10.527-25.876 9.601 5.019 13.529 22.347-8.256a29.13 29.13 0 0 0 1.8 12.274c5.474 14.856 21.402 22.639 35.567 17.384 14.147-5.255 21.166-21.511 15.674-36.331a29.73 29.73 0 0 0-6.655-10.546l3.71-1.364.019.054 15.274-5.673-10.656-28.711-.163.054a13.201 13.201 0 0 0-16.112-6.437c-.182.073-.309.164-.49.218l-.037-.109-75.37 27.93 4.872 13.128zM627.156 88.73c10.728 4.637 16.601-.818 16.601-.818 3.328 10.11 14.91 13.147 14.91 13.147v-.037l25.458 9.874 4.673-12.038-24.275-9.419-3.764-1.455s-6.764-3.454-4.219-8.455l34.422 13.347 4.727-12.129L612.3 48.4l-4.71 12.147 32.767 12.71c-.6 1.345-2.6 3.873-8.8 3.273l-26.24-10.183-4.673 12.165 26.494 10.255zM620.916 125.754l14.765 5.71 6.146-15.91 35.421 13.728 4.728-12.147-83.39-32.348-4.727 12.164 33.22 12.874zM783.208 153.048c.946-1.345 1.764-2.673 2.4-4.164l15.529 12.838-3.019 3.636zm-11.528-7.964a12.092 12.092 0 0 1-17.038 1.291 12.11 12.11 0 0 1-1.946-16.983 12.128 12.128 0 0 1 17.038-1.273 12.074 12.074 0 0 1 1.946 16.965m-52.441 24.457-.128.163 52.078 42.95.054-.073 5.019 4.182 38.803-47.04-.09-.11a12.838 12.838 0 0 0-2.783-16.383l.073-.054-25.093-20.711a27.112 27.112 0 0 0-9.147-14.638c-11.273-9.31-27.711-8.055-36.676 2.764-8.946 10.892-7.073 27.257 4.237 36.585 7.783 6.4 18.038 7.819 26.584 4.473l17.238 14.238-16.238 19.71-41.913-34.62 7.547-9.129-13.22-10.91-7.964 9.655-.146.182c-.073.073-.127.182-.2.237l-.873 1.073.091.054a13.71 13.71 0 0 0 2.746 17.402M928.488 352.674a12.136 12.135 0 1 1 5.583 23.62 12.136 12.135 0 0 1-5.583-23.62m-22.292 7.364-11.383 2.728-3.819-16.074-12.22 2.909a13.238 13.238 0 0 0-7.8 15.565l.218.727 13.674 57.824-.145.038 3.636 15.383L953 423.864l.019.109c6.51-1.546 10.564-8 9.055-14.365l-.364-1.2.11-.038-5.728-24.184-13.82 3.273 5.092 21.493-48.968 11.565-13.093-55.35 9.529-2.274 3.873 16.384 11.383-2.71 7.31 30.876 11.819-2.8-3.692-15.566a25.22 25.22 0 1 0-10.4-43.985l-1.764-7.492-11.801 2.8zM35.717 489.94a33.167 33.167 0 0 1 66.024 2.363c-16.73-21.638-33.84-6.273-35.84 4.128-2.018 10.491-11.783 12.073-11.783 12.073-14.874 1.11-17.947-10.91-18.401-18.565m32.766 39.822a35.794 35.794 0 1 0 0-71.588 35.794 35.794 0 1 0 0 71.588M931.527 499.616c-1.983 10.492-11.783 12.074-11.783 12.074-14.874 1.11-17.947-10.91-18.402-18.602a33.167 33.167 0 0 1 66.024 2.382c-16.692-21.602-33.821-6.237-35.84 4.146m2.6-38.276a35.821 35.821 0 1 0 0 71.643 35.821 35.821 0 0 0 0-71.643M371.371 561.056c-1.145 0-2.072.655-2.072 1.436 0 .764.927 1.4 2.072 1.4 1.146 0 2.055-.636 2.055-1.4 0-.781-.909-1.436-2.055-1.436M905.768 107.98h.038l-.038-.055z"/></svg>